<?xml version="1.0" standalone="no"?>
<!DOCTYPE svg PUBLIC "-//W3C//DTD SVG 20010904//EN"
 "http://www.w3.org/TR/2001/REC-SVG-20010904/DTD/svg10.dtd">
<svg version="1.0" xmlns="http://www.w3.org/2000/svg"
 width="500.000000pt" height="500.000000pt" viewBox="0 0 500.000000 500.000000"
 preserveAspectRatio="xMidYMid meet">
<metadata>
Created by potrace 1.14, written by Peter Selinger 2001-2017
</metadata>
<g transform="translate(0.000000,500.000000) scale(0.100000,-0.100000)"
fill="#000000" stroke="none">
<path d="M3516 2958 c-8 -18 -103 -247 -211 -508 -109 -261 -200 -483 -203
-493 -4 -16 2 -18 58 -15 l63 3 67 160 66 160 195 3 195 2 69 -165 70 -165 63
0 c47 0 63 3 59 13 -31 77 -420 1005 -428 1019 -16 29 -48 22 -63 -14z m127
-440 l55 -138 -144 0 c-79 0 -144 3 -144 7 0 4 29 82 64 173 35 91 66 174 70
185 6 16 11 9 25 -35 10 -30 43 -117 74 -192z"/>
<path d="M2204 2970 c-106 -33 -184 -133 -184 -237 0 -118 54 -176 269 -287
167 -87 206 -121 217 -191 20 -134 -101 -249 -245 -232 -96 11 -189 78 -221
158 -7 18 -14 35 -15 37 -5 7 -105 -42 -105 -52 0 -28 54 -117 90 -150 148
-133 377 -141 513 -16 90 82 125 195 93 302 -25 88 -102 155 -276 243 -150 75
-200 124 -200 197 0 27 8 47 30 71 40 46 78 60 145 55 44 -4 62 -11 85 -33 17
-16 30 -34 30 -41 0 -8 20 -13 55 -16 l55 -3 0 35 c0 48 -39 103 -97 137 -38
22 -60 27 -127 30 -45 1 -95 -2 -112 -7z"/>
<path d="M1248 2605 c-1 -195 -3 -370 -4 -387 -2 -18 0 -88 3 -155 l6 -121 49
-4 c71 -4 77 2 73 70 -3 31 -4 258 -5 505 l0 447 -60 0 -60 0 -2 -355z"/>
<path d="M4560 2450 l0 -510 60 0 60 0 0 510 0 510 -60 0 -60 0 0 -510z"/>
<path d="M25 2885 c14 -63 68 -187 114 -257 80 -124 71 -121 -26 7 -58 78 -62
80 -28 20 99 -175 207 -285 485 -496 227 -171 311 -265 345 -383 36 -125 2
-237 -104 -339 -132 -127 -325 -196 -560 -198 -93 -1 -101 -2 -66 -11 47 -12
243 -16 300 -6 29 6 35 5 20 -2 -11 -6 -56 -16 -100 -24 -66 -12 -72 -14 -35
-14 25 0 68 3 97 7 29 4 50 4 47 0 -5 -8 -104 -26 -219 -39 -69 -7 -59 -8 75
-6 133 3 167 7 243 30 130 39 226 91 322 175 l40 36 -33 -39 c-18 -21 -54 -56
-80 -78 -70 -60 -72 -63 -14 -32 71 39 168 127 208 190 53 82 75 163 75 268 0
102 -14 163 -56 249 -67 136 -181 239 -470 423 l-180 114 90 -87 c81 -78 84
-83 35 -48 -212 151 -325 261 -427 421 -22 33 5 -35 33 -86 22 -39 22 -42 4
-21 -28 33 -85 130 -116 200 -14 32 -22 43 -19 26z"/>
<path d="M2217 1773 c-11 -11 -8 -183 3 -183 6 0 10 38 10 95 0 95 -1 101 -13
88z"/>
<path d="M2320 1685 c0 -57 4 -95 10 -95 6 0 10 38 10 95 0 57 -4 95 -10 95
-6 0 -10 -38 -10 -95z"/>
<path d="M1610 1680 c0 -53 4 -90 10 -90 6 0 10 37 10 90 0 53 -4 90 -10 90
-6 0 -10 -37 -10 -90z"/>
<path d="M2420 1760 c0 -5 5 -10 10 -10 6 0 10 5 10 10 0 6 -4 10 -10 10 -5 0
-10 -4 -10 -10z"/>
<path d="M3350 1755 c-19 -23 -8 -48 33 -74 39 -26 47 -50 22 -71 -17 -14 -51
-5 -59 16 -3 8 -11 12 -17 9 -19 -12 22 -45 56 -45 38 0 55 16 55 51 0 22 -9
33 -40 50 -50 28 -50 55 -2 52 27 -1 31 1 21 13 -15 18 -53 18 -69 -1z"/>
<path d="M1900 1686 c0 -35 3 -71 6 -80 7 -17 54 -22 54 -6 0 6 -9 10 -20 10
-17 0 -20 7 -20 45 0 38 3 45 20 45 11 0 20 5 20 10 0 6 -9 10 -20 10 -11 0
-20 7 -20 15 0 8 -4 15 -10 15 -6 0 -10 -28 -10 -64z"/>
<path d="M3080 1686 c0 -35 3 -71 6 -80 7 -17 54 -22 54 -6 0 6 -9 10 -20 10
-17 0 -20 7 -20 45 0 38 3 45 20 45 11 0 20 5 20 10 0 6 -9 10 -20 10 -11 0
-20 7 -20 15 0 8 -4 15 -10 15 -6 0 -10 -28 -10 -64z"/>
<path d="M3840 1689 c0 -69 12 -99 40 -99 26 0 26 16 0 23 -16 4 -20 14 -20
46 0 34 3 41 20 41 11 0 20 5 20 10 0 6 -9 10 -20 10 -11 0 -20 7 -20 15 0 8
-4 15 -10 15 -6 0 -10 -27 -10 -61z"/>
<path d="M1715 1703 c3 -8 5 -37 5 -64 0 -66 18 -63 22 4 3 48 5 52 31 55 27
3 27 2 27 -52 0 -32 4 -56 10 -56 7 0 10 24 8 63 l-3 62 -53 1 c-42 0 -52 -2
-47 -13z"/>
<path d="M2047 1702 c-22 -24 -22 -76 -1 -97 10 -10 29 -15 47 -13 44 4 44 23
0 23 -28 0 -38 5 -41 18 -3 14 4 17 42 17 50 0 57 10 30 48 -18 27 -55 29 -77
4z m67 -18 c4 -10 -3 -14 -29 -14 -37 0 -46 13 -18 28 20 12 39 6 47 -14z"/>
<path d="M2420 1655 c0 -37 4 -65 10 -65 6 0 10 28 10 65 0 37 -4 65 -10 65
-6 0 -10 -28 -10 -65z"/>
<path d="M2552 1708 c-7 -7 -12 -22 -12 -34 0 -12 -6 -27 -14 -33 -10 -8 -13
-24 -9 -49 9 -63 62 -90 111 -56 46 32 15 74 -55 74 -31 0 -43 4 -40 13 2 7
17 11 36 9 38 -4 61 12 61 42 0 12 5 27 12 34 9 9 2 12 -33 12 -25 0 -50 -5
-57 -12z m52 -13 c20 -20 10 -45 -19 -45 -29 0 -39 25 -19 45 9 8 17 15 19 15
2 0 10 -7 19 -15z m23 -121 c8 -21 -15 -35 -52 -32 -23 2 -31 9 -33 26 -3 20
1 22 38 22 28 0 43 -5 47 -16z"/>
<path d="M2726 1698 c-35 -50 -6 -113 50 -106 42 5 39 23 -3 23 -28 0 -38 5
-41 18 -3 14 4 17 42 17 39 0 46 3 46 19 0 48 -67 68 -94 29z m74 -18 c0 -6
-16 -10 -35 -10 -40 0 -41 2 -19 24 12 12 20 13 35 6 10 -6 19 -15 19 -20z"/>
<path d="M2895 1702 c3 -7 5 -36 5 -63 0 -66 18 -63 22 4 3 48 5 52 31 55 27
3 27 2 27 -52 0 -31 5 -56 10 -56 15 0 12 106 -3 118 -20 17 -99 11 -92 -6z"/>
<path d="M3510 1715 c0 -3 11 -32 25 -65 30 -72 30 -75 5 -100 -19 -19 -19
-20 -1 -20 19 0 27 14 57 110 9 30 19 61 22 68 2 6 0 12 -6 12 -6 0 -16 -17
-22 -37 -19 -57 -26 -59 -45 -9 -10 25 -22 46 -26 46 -5 0 -9 -2 -9 -5z"/>
<path d="M3697 1713 c-16 -15 -5 -44 23 -58 17 -9 30 -23 30 -32 0 -12 -7 -14
-35 -10 -39 6 -48 -9 -11 -19 65 -16 94 41 35 71 -33 18 -34 41 0 38 11 -2 21
2 21 7 0 11 -53 14 -63 3z"/>
<path d="M3986 1698 c-35 -50 -6 -113 50 -106 42 5 39 23 -3 23 -28 0 -38 5
-41 18 -3 14 4 17 42 17 39 0 46 3 46 19 0 48 -67 68 -94 29z m74 -18 c0 -6
-16 -10 -35 -10 -40 0 -41 2 -19 24 12 12 20 13 35 6 10 -6 19 -15 19 -20z"/>
<path d="M4155 1702 c3 -8 5 -36 5 -63 0 -66 18 -63 22 4 3 45 6 52 26 55 21
3 22 0 22 -52 0 -71 18 -74 22 -3 3 48 5 52 28 52 23 0 25 -4 30 -55 5 -57 20
-49 20 11 0 60 -11 67 -100 66 -63 -1 -79 -4 -75 -15z"/>
<path d="M2697 1523 c-11 -11 -8 -183 3 -183 6 0 10 38 10 95 0 95 -1 101 -13
88z"/>
<path d="M1925 1478 c-49 -122 -54 -138 -44 -138 5 0 15 14 20 30 9 26 16 30
46 30 29 0 36 -5 46 -30 11 -28 27 -41 27 -21 0 12 -60 154 -70 164 -4 5 -15
-11 -25 -35z m45 -55 c0 -13 -32 -18 -42 -7 -3 3 -1 18 5 35 l11 29 13 -23 c7
-12 12 -28 13 -34z"/>
<path d="M2420 1510 c0 -5 5 -10 10 -10 6 0 10 5 10 10 0 6 -4 10 -10 10 -5 0
-10 -4 -10 -10z"/>
<path d="M2920 1430 c0 -53 4 -90 10 -90 6 0 10 37 10 90 0 53 -4 90 -10 90
-6 0 -10 -37 -10 -90z"/>
<path d="M3650 1510 c0 -5 5 -10 10 -10 6 0 10 5 10 10 0 6 -4 10 -10 10 -5 0
-10 -4 -10 -10z"/>
<path d="M2106 1448 c-35 -50 -6 -113 50 -106 42 5 39 23 -3 23 -28 0 -38 5
-41 18 -3 14 4 17 42 17 39 0 46 3 46 19 0 48 -67 68 -94 29z m74 -18 c0 -6
-16 -10 -35 -10 -40 0 -41 2 -19 24 12 12 20 13 35 6 10 -6 19 -15 19 -20z"/>
<path d="M2275 1453 c3 -8 5 -37 5 -64 0 -66 18 -63 22 4 3 45 6 52 26 55 38
6 24 22 -18 20 -31 -1 -40 -5 -35 -15z"/>
<path d="M2420 1405 c0 -37 4 -65 10 -65 6 0 10 28 10 65 0 37 -4 65 -10 65
-6 0 -10 -28 -10 -65z"/>
<path d="M2527 1463 c-15 -14 -6 -22 16 -14 27 10 47 4 47 -14 0 -8 -13 -15
-31 -17 -39 -4 -59 -30 -43 -55 8 -13 25 -18 56 -19 l45 -1 -5 51 c-2 28 -9
57 -14 64 -11 13 -60 17 -71 5z m61 -80 c-4 -22 -58 -31 -58 -10 0 20 10 27
37 27 18 0 24 -5 21 -17z"/>
<path d="M3030 1403 c0 -76 18 -85 22 -10 3 48 5 52 28 52 23 0 25 -4 28 -52
2 -29 7 -53 12 -53 5 0 10 24 12 53 3 45 6 52 26 55 21 3 22 0 22 -52 0 -31 5
-56 10 -56 15 0 12 107 -2 117 -7 4 -46 8 -85 8 l-73 1 0 -63z"/>
<path d="M3284 1459 c-4 -7 3 -10 17 -9 40 4 49 1 49 -15 0 -9 -9 -15 -24 -15
-14 0 -32 -7 -40 -16 -19 -18 -19 -20 -6 -44 8 -15 20 -19 54 -18 l43 2 -4 51
c-3 27 -6 56 -8 63 -5 15 -71 16 -81 1z m64 -76 c-4 -20 -35 -30 -50 -15 -15
15 0 32 28 32 19 0 25 -5 22 -17z"/>
<path d="M3482 1458 c-7 -7 -12 -22 -12 -34 0 -12 -6 -27 -14 -33 -10 -8 -13
-24 -9 -49 9 -63 62 -90 111 -56 46 32 15 74 -55 74 -31 0 -43 4 -40 13 2 7
17 11 36 9 38 -4 61 12 61 42 0 12 5 27 12 34 9 9 2 12 -33 12 -25 0 -50 -5
-57 -12z m52 -13 c20 -20 10 -45 -19 -45 -29 0 -39 25 -19 45 9 8 17 15 19 15
2 0 10 -7 19 -15z m23 -121 c8 -21 -15 -35 -52 -32 -23 2 -31 9 -33 26 -3 20
1 22 38 22 28 0 43 -5 47 -16z"/>
<path d="M3650 1405 c0 -37 4 -65 10 -65 6 0 10 28 10 65 0 37 -4 65 -10 65
-6 0 -10 -28 -10 -65z"/>
<path d="M3750 1403 c0 -73 17 -86 22 -17 3 50 22 72 52 61 12 -5 16 -19 16
-57 0 -27 5 -50 10 -50 13 0 13 86 0 111 -9 15 -20 19 -55 17 l-45 -3 0 -62z"/>
<path d="M3962 1458 c-7 -7 -12 -21 -12 -33 0 -12 -5 -26 -10 -31 -7 -7 -8
-28 -3 -60 7 -41 13 -50 36 -59 21 -7 35 -6 55 6 56 31 32 79 -39 79 -21 0
-41 5 -44 10 -7 11 4 13 47 10 29 -1 66 40 53 60 -3 5 -1 10 4 10 6 0 11 5 11
10 0 14 -84 12 -98 -2z m66 -36 c-5 -24 -52 -23 -56 2 -2 10 2 22 9 27 18 11
51 -9 47 -29z m7 -107 c0 -24 -48 -34 -71 -14 -29 24 -17 40 29 37 34 -2 42
-7 42 -23z"/>
</g>
</svg>
